<?xml version="1.0" encoding="UTF-8" standalone="no"?>
<!-- Created with Inkscape (http://www.inkscape.org/) -->

<svg
   xmlns:dc="http://purl.org/dc/elements/1.1/"
   xmlns:cc="http://creativecommons.org/ns#"
   xmlns:rdf="http://www.w3.org/1999/02/22-rdf-syntax-ns#"
   xmlns:svg="http://www.w3.org/2000/svg"
   xmlns="http://www.w3.org/2000/svg"
   xmlns:sodipodi="http://sodipodi.sourceforge.net/DTD/sodipodi-0.dtd"
   xmlns:inkscape="http://www.inkscape.org/namespaces/inkscape"
   width="189.05862mm"
   height="136.0833mm"
   viewBox="0 0 669.89276 482.18491"
   id="svg2"
   version="1.1"
   inkscape:version="0.91 r13725"
   sodipodi:docname="server.svg">
  <defs
     id="defs4">
    <marker
       inkscape:stockid="Arrow1Mend"
       orient="auto"
       refY="0.0"
       refX="0.0"
       id="Arrow1Mend"
       style="overflow:visible;">
      <path
         id="path4215"
         d="M 0.0,0.0 L 5.0,-5.0 L -12.5,0.0 L 5.0,5.0 L 0.0,0.0 z "
         style="fill-rule:evenodd;stroke:#000000;stroke-width:1.0pt;marker-start:none;"
         transform="scale(0.4) rotate(180) translate(10,0)" />
    </marker>
    <marker
       inkscape:isstock="true"
       style="overflow:visible"
       id="marker7752"
       refX="0"
       refY="0"
       orient="auto"
       inkscape:stockid="Arrow1Lstart">
      <path
         transform="matrix(0.8,0,0,0.8,10,0)"
         style="fill:#000000;fill-opacity:1;fill-rule:evenodd;stroke:#000000;stroke-width:1pt;stroke-opacity:1"
         d="M 0,0 5,-5 -12.5,0 5,5 0,0 Z"
         id="path7754"
         inkscape:connector-curvature="0" />
    </marker>
    <marker
       inkscape:stockid="Arrow1Lend"
       orient="auto"
       refY="0"
       refX="0"
       id="marker6936"
       style="overflow:visible"
       inkscape:isstock="true">
      <path
         id="path6938"
         d="M 0,0 5,-5 -12.5,0 5,5 0,0 Z"
         style="fill:#000000;fill-opacity:1;fill-rule:evenodd;stroke:#000000;stroke-width:1pt;stroke-opacity:1"
         transform="matrix(-0.8,0,0,-0.8,-10,0)"
         inkscape:connector-curvature="0" />
    </marker>
    <marker
       inkscape:isstock="true"
       style="overflow:visible"
       id="marker11834"
       refX="0"
       refY="0"
       orient="auto"
       inkscape:stockid="Arrow1Lstart">
      <path
         transform="matrix(0.8,0,0,0.8,10,0)"
         style="fill:#000000;fill-opacity:1;fill-rule:evenodd;stroke:#000000;stroke-width:1pt;stroke-opacity:1"
         d="M 0,0 5,-5 -12.5,0 5,5 0,0 Z"
         id="path11836"
         inkscape:connector-curvature="0" />
    </marker>
    <marker
       inkscape:stockid="Arrow1Lend"
       orient="auto"
       refY="0"
       refX="0"
       id="marker11898"
       style="overflow:visible"
       inkscape:isstock="true">
      <path
         id="path11900"
         d="M 0,0 5,-5 -12.5,0 5,5 0,0 Z"
         style="fill:#000000;fill-opacity:1;fill-rule:evenodd;stroke:#000000;stroke-width:1pt;stroke-opacity:1"
         transform="matrix(-0.8,0,0,-0.8,-10,0)"
         inkscape:connector-curvature="0" />
    </marker>
    <marker
       inkscape:isstock="true"
       style="overflow:visible"
       id="marker13756"
       refX="0"
       refY="0"
       orient="auto"
       inkscape:stockid="Arrow1Lstart">
      <path
         inkscape:connector-curvature="0"
         transform="matrix(0.8,0,0,0.8,10,0)"
         style="fill:#f50000;fill-opacity:1;fill-rule:evenodd;stroke:#f50000;stroke-width:1pt;stroke-opacity:1"
         d="M 0,0 5,-5 -12.5,0 5,5 0,0 Z"
         id="path13758" />
    </marker>
    <marker
       inkscape:stockid="Arrow1Lend"
       orient="auto"
       refY="0"
       refX="0"
       id="marker13844"
       style="overflow:visible"
       inkscape:isstock="true">
      <path
         id="path13846"
         d="M 0,0 5,-5 -12.5,0 5,5 0,0 Z"
         style="fill:#f50000;fill-opacity:1;fill-rule:evenodd;stroke:#f50000;stroke-width:1pt;stroke-opacity:1"
         transform="matrix(-0.8,0,0,-0.8,-10,0)"
         inkscape:connector-curvature="0" />
    </marker>
  </defs>
  <sodipodi:namedview
     id="base"
     pagecolor="#ffffff"
     bordercolor="#666666"
     borderopacity="1.0"
     inkscape:pageopacity="0.0"
     inkscape:pageshadow="2"
     inkscape:zoom="1.0722028"
     inkscape:cx="318.62484"
     inkscape:cy="241.09245"
     inkscape:document-units="px"
     inkscape:current-layer="layer1"
     showgrid="false"
     showborder="false"
     inkscape:window-width="1301"
     inkscape:window-height="744"
     inkscape:window-x="65"
     inkscape:window-y="24"
     inkscape:window-maximized="1"
     fit-margin-top="0"
     fit-margin-left="0"
     fit-margin-right="0"
     fit-margin-bottom="0" />
  <metadata
     id="metadata7">
    <rdf:RDF>
      <cc:Work
         rdf:about="">
        <dc:format>image/svg+xml</dc:format>
        <dc:type
           rdf:resource="http://purl.org/dc/dcmitype/StillImage" />
        <dc:title></dc:title>
      </cc:Work>
    </rdf:RDF>
  </metadata>
  <g
     inkscape:label="Layer 1"
     inkscape:groupmode="layer"
     id="layer1"
     transform="translate(-56.306782,-383.30127)">
    <text
       sodipodi:linespacing="125%"
       id="text38368"
       y="599.73169"
       x="91.996361"
       style="font-size:14.55451107px;font-style:normal;font-weight:normal;text-align:center;line-height:125%;letter-spacing:0px;word-spacing:0px;text-anchor:middle;fill:#000000;fill-opacity:1;stroke:none;font-family:sans-serif"
       xml:space="preserve"
       transform="scale(1.0874235,0.91960492)"><tspan
         id="tspan4264"
         y="599.73169"
         x="94.014664"
         sodipodi:role="line">Server  </tspan></text>
    <flowRoot
       xml:space="preserve"
       id="flowRoot13734"
       style="font-size:40px;font-style:normal;font-weight:normal;line-height:125%;letter-spacing:0px;word-spacing:0px;fill:#000000;fill-opacity:1;stroke:none;font-family:sans-serif"
       transform="matrix(0.39567294,0,0,0.33461002,212.57221,383.30124)"><flowRegion
         id="flowRegion13736"><rect
           id="rect13738"
           width="200"
           height="48.57143"
           x="317.14285"
           y="941" /></flowRegion><flowPara
         id="flowPara13740" /></flowRoot>    <path
       style="fill:none;stroke:#000000;stroke-width:2;stroke-linecap:butt;stroke-linejoin:miter;stroke-miterlimit:4;stroke-opacity:1;stroke-dasharray:none"
       d="m 134.4422,546.66277 c 58.79305,0 562.13784,0.0171 562.13784,0.0171"
       id="path3141"
       inkscape:connector-curvature="0"
       sodipodi:nodetypes="cc" />
    <text
       transform="scale(1.0874235,0.91960492)"
       xml:space="preserve"
       style="font-size:14.55451107px;font-style:normal;font-weight:normal;text-align:center;line-height:125%;letter-spacing:0px;word-spacing:0px;text-anchor:middle;fill:#000000;fill-opacity:1;stroke:none;font-family:sans-serif"
       x="90.59626"
       y="774.08923"
       id="text3959"
       sodipodi:linespacing="125%"><tspan
         sodipodi:role="line"
         x="92.614563"
         y="774.08923"
         id="tspan3961">Client 1  </tspan></text>
    <flowRoot
       transform="matrix(0.39567294,0,0,0.33461002,211.04971,541.64126)"
       style="font-size:40px;font-style:normal;font-weight:normal;line-height:125%;letter-spacing:0px;word-spacing:0px;fill:#000000;fill-opacity:1;stroke:none;font-family:sans-serif"
       id="flowRoot3963"
       xml:space="preserve"><flowRegion
         id="flowRegion3965"><rect
           y="941"
           x="317.14285"
           height="48.57143"
           width="200"
           id="rect3967" /></flowRegion><flowPara
         id="flowPara3969" /></flowRoot>    <path
       sodipodi:nodetypes="cc"
       inkscape:connector-curvature="0"
       id="path3971"
       d="m 132.9197,707.00279 c 58.79305,0 562.13784,0.0171 562.13784,0.0171"
       style="fill:none;stroke:#000000;stroke-width:2;stroke-linecap:butt;stroke-linejoin:miter;stroke-miterlimit:4;stroke-opacity:1;stroke-dasharray:none" />
    <text
       sodipodi:linespacing="125%"
       id="text3973"
       y="926.17902"
       x="89.196159"
       style="font-size:14.55451107px;font-style:normal;font-weight:normal;text-align:center;line-height:125%;letter-spacing:0px;word-spacing:0px;text-anchor:middle;fill:#000000;fill-opacity:1;stroke:none;font-family:sans-serif"
       xml:space="preserve"
       transform="scale(1.0874235,0.91960492)"><tspan
         id="tspan3975"
         y="926.17902"
         x="91.214462"
         sodipodi:role="line">Client 2  </tspan></text>
    <flowRoot
       xml:space="preserve"
       id="flowRoot3977"
       style="font-size:40px;font-style:normal;font-weight:normal;line-height:125%;letter-spacing:0px;word-spacing:0px;fill:#000000;fill-opacity:1;stroke:none;font-family:sans-serif"
       transform="matrix(0.39567294,0,0,0.33461002,209.52721,701.50378)"><flowRegion
         id="flowRegion3979"><rect
           id="rect3981"
           width="200"
           height="48.57143"
           x="317.14285"
           y="941" /></flowRegion><flowPara
         id="flowPara3983" /></flowRoot>    <path
       style="fill:none;stroke:#000000;stroke-width:2;stroke-linecap:butt;stroke-linejoin:miter;stroke-miterlimit:4;stroke-opacity:1;stroke-dasharray:none"
       d="m 131.3972,846.86531 c 58.79305,0 562.13784,0.0171 562.13784,0.0171"
       id="path3985"
       inkscape:connector-curvature="0"
       sodipodi:nodetypes="cc" />
    <text
       transform="matrix(0,-1,1,0,0,0)"
       sodipodi:linespacing="125%"
       id="text3991"
       y="190.31361"
       x="-528.80505"
       style="font-size:18px;font-style:normal;font-weight:normal;line-height:125%;letter-spacing:0px;word-spacing:0px;fill:#000000;fill-opacity:1;stroke:none;font-family:Sans"
       xml:space="preserve"><tspan
         y="190.31361"
         x="-528.80505"
         id="tspan3993"
         sodipodi:role="line">sign in 1</tspan></text>
    <text
       xml:space="preserve"
       style="font-size:18px;font-style:normal;font-weight:normal;line-height:125%;letter-spacing:0px;word-spacing:0px;fill:#000000;fill-opacity:1;stroke:none;font-family:Sans"
       x="-528.29712"
       y="216.51974"
       id="text3995"
       sodipodi:linespacing="125%"
       transform="matrix(0,-1,1,0,0,0)"><tspan
         sodipodi:role="line"
         id="tspan3997"
         x="-528.29712"
         y="216.51974">sign in 2</tspan></text>
    <text
       transform="matrix(0,-1,1,0,0,0)"
       sodipodi:linespacing="125%"
       id="text4003"
       y="239.83623"
       x="-528.29712"
       style="font-style:normal;font-weight:normal;font-size:18px;line-height:125%;font-family:Sans;letter-spacing:0px;word-spacing:0px;fill:#000000;fill-opacity:1;stroke:none"
       xml:space="preserve"><tspan
         y="239.83623"
         x="-528.29712"
         id="tspan4005"
         sodipodi:role="line">close(run.ch) </tspan></text>
    <path
       style="fill:none;stroke:#000000;stroke-width:1.5;stroke-linecap:butt;stroke-linejoin:miter;stroke-miterlimit:4;stroke-opacity:1;stroke-dasharray:none;marker-end:url(#Arrow1Mend)"
       d="m 235.1449,546.18366 c 28.65377,159.11156 29.6218,156.44947 29.6218,156.44947 l 0.16199,0.94708"
       id="path6191"
       inkscape:connector-curvature="0"
       sodipodi:nodetypes="ccc" />
    <path
       sodipodi:nodetypes="ccc"
       inkscape:connector-curvature="0"
       id="path8117"
       d="m 234.99276,546.26794 c 79.89333,290.13877 81.58739,294.49491 81.58739,294.49491 l 0.45166,1.72701"
       style="fill:none;stroke:#000000;stroke-width:1.5;stroke-linecap:butt;stroke-linejoin:miter;stroke-miterlimit:4;stroke-opacity:1;stroke-dasharray:none;marker-end:url(#Arrow1Mend)" />
    <path
       sodipodi:type="arc"
       style="fill:#ffffff;fill-opacity:1;stroke:none"
       id="path8119"
       sodipodi:cx="49.403679"
       sodipodi:cy="256.01315"
       sodipodi:rx="2.5701337"
       sodipodi:ry="5.1402674"
       d="m 51.973813,256.01315 a 2.5701337,5.1402674 0 0 1 -2.570134,5.14027 2.5701337,5.1402674 0 0 1 -2.570134,-5.14027 2.5701337,5.1402674 0 0 1 2.570134,-5.14026 2.5701337,5.1402674 0 0 1 2.570134,5.14026 z"
       transform="translate(56.306779,383.30127)" />
    <path
       sodipodi:type="arc"
       style="fill:#ffffff;fill-opacity:1;stroke:none"
       id="path8121"
       sodipodi:cx="75.105019"
       sodipodi:cy="252.01517"
       sodipodi:rx="5.9969783"
       sodipodi:ry="0.57114083"
       d="m 81.101997,252.01517 a 5.9969783,0.57114083 0 0 1 -5.996978,0.57114 5.9969783,0.57114083 0 0 1 -5.996979,-0.57114 5.9969783,0.57114083 0 0 1 5.996979,-0.57114 5.9969783,0.57114083 0 0 1 5.996978,0.57114 z"
       transform="translate(56.306779,383.30127)" />
    <path
       sodipodi:type="arc"
       style="fill:#000000;fill-opacity:1;stroke:#000000;stroke-opacity:1"
       id="path8125"
       sodipodi:cx="327.26367"
       sodipodi:cy="257.44101"
       sodipodi:rx="31.412745"
       sodipodi:ry="30.556034"
       d="m 358.67642,257.44101 a 31.412745,30.556034 0 0 1 -31.41275,30.55603 31.412745,30.556034 0 0 1 -31.41274,-30.55603 31.412745,30.556034 0 0 1 31.41274,-30.55603 31.412745,30.556034 0 0 1 31.41275,30.55603 z"
       transform="matrix(0.14097874,0,0,0.14493142,139.60777,508.89994)" />
    <path
       transform="matrix(0.14097874,0,0,0.14493142,166.22864,508.89994)"
       d="m 358.67642,257.44101 a 31.412745,30.556034 0 0 1 -31.41275,30.55603 31.412745,30.556034 0 0 1 -31.41274,-30.55603 31.412745,30.556034 0 0 1 31.41274,-30.55603 31.412745,30.556034 0 0 1 31.41275,30.55603 z"
       sodipodi:ry="30.556034"
       sodipodi:rx="31.412745"
       sodipodi:cy="257.44101"
       sodipodi:cx="327.26367"
       id="path8127"
       style="fill:#000000;fill-opacity:1;stroke:#000000;stroke-opacity:1"
       sodipodi:type="arc" />
    <path
       sodipodi:type="arc"
       style="fill:#000000;fill-opacity:1;stroke:#000000;stroke-opacity:1"
       id="path8129"
       sodipodi:cx="327.26367"
       sodipodi:cy="257.44101"
       sodipodi:rx="31.412745"
       sodipodi:ry="30.556034"
       d="m 358.67642,257.44101 a 31.412745,30.556034 0 0 1 -31.41275,30.55603 31.412745,30.556034 0 0 1 -31.41274,-30.55603 31.412745,30.556034 0 0 1 31.41274,-30.55603 31.412745,30.556034 0 0 1 31.41275,30.55603 z"
       transform="matrix(0.14097874,0,0,0.14493142,188.97739,508.65793)" />
    <path
       style="fill:none;stroke:#000000;stroke-width:1.69716227;stroke-linecap:butt;stroke-linejoin:miter;stroke-miterlimit:4;stroke-opacity:1;stroke-dasharray:none;marker-end:url(#Arrow1Mend)"
       d="m 289.33773,705.51782 c 36.29951,-160.78551 37.52585,-158.09541 37.52585,-158.09541 l 0.20521,-0.95705"
       id="path8135"
       inkscape:connector-curvature="0"
       sodipodi:nodetypes="ccc" />
    <path
       inkscape:connector-curvature="0"
       id="path8139"
       d="m 265.05249,706.08643 c 25.14055,0 24.92002,0 24.92002,0"
       style="fill:none;stroke:#f70000;stroke-width:5;stroke-linecap:butt;stroke-linejoin:miter;stroke-miterlimit:4;stroke-opacity:1;stroke-dasharray:none" />
    <text
       transform="matrix(0,-1,1,0,0,0)"
       sodipodi:linespacing="125%"
       id="text8147"
       y="346.06772"
       x="-528.80505"
       style="font-size:18px;font-style:normal;font-weight:normal;line-height:125%;letter-spacing:0px;word-spacing:0px;fill:#000000;fill-opacity:1;stroke:none;font-family:Sans"
       xml:space="preserve"><tspan
         y="346.06772"
         x="-528.80505"
         id="tspan8149"
         sodipodi:role="line">sign out 1</tspan></text>
    <path
       sodipodi:type="arc"
       style="fill:#000000;fill-opacity:1;stroke:#000000;stroke-opacity:1"
       id="path8151"
       sodipodi:cx="327.26367"
       sodipodi:cy="257.44101"
       sodipodi:rx="31.412745"
       sodipodi:ry="30.556034"
       d="m 358.67642,257.44101 a 31.412745,30.556034 0 0 1 -31.41275,30.55603 31.412745,30.556034 0 0 1 -31.41274,-30.55603 31.412745,30.556034 0 0 1 31.41274,-30.55603 31.412745,30.556034 0 0 1 31.41275,30.55603 z"
       transform="matrix(0.14097874,0,0,0.14493142,295.36189,508.89994)" />
    <path
       transform="matrix(0.14097874,0,0,0.14493142,316.81306,508.89994)"
       d="m 358.67642,257.44101 a 31.412745,30.556034 0 0 1 -31.41275,30.55603 31.412745,30.556034 0 0 1 -31.41274,-30.55603 31.412745,30.556034 0 0 1 31.41274,-30.55603 31.412745,30.556034 0 0 1 31.41275,30.55603 z"
       sodipodi:ry="30.556034"
       sodipodi:rx="31.412745"
       sodipodi:cy="257.44101"
       sodipodi:cx="327.26367"
       id="path8161"
       style="fill:#000000;fill-opacity:1;stroke:#000000;stroke-opacity:1"
       sodipodi:type="arc" />
    <text
       xml:space="preserve"
       style="font-style:normal;font-weight:normal;font-size:18px;line-height:125%;font-family:Sans;letter-spacing:0px;word-spacing:0px;fill:#000000;fill-opacity:1;stroke:none"
       x="-529.2298"
       y="389.06174"
       id="text8163"
       sodipodi:linespacing="125%"
       transform="matrix(0,-1,1,0,0,0)"><tspan
         sodipodi:role="line"
         id="tspan8165"
         x="-529.2298"
         y="389.06174">stop.Done() </tspan></text>
    <path
       sodipodi:nodetypes="ccc"
       inkscape:connector-curvature="0"
       id="path8167"
       d="m 384.3704,547.11632 c 28.65377,159.11156 29.6218,156.44947 29.6218,156.44947 l 0.16199,0.94708"
       style="fill:none;stroke:#000000;stroke-width:1.5;stroke-linecap:butt;stroke-linejoin:miter;stroke-miterlimit:4;stroke-opacity:1;stroke-dasharray:none;marker-end:url(#Arrow1Mend)" />
    <path
       style="fill:none;stroke:#000000;stroke-width:1.5;stroke-linecap:butt;stroke-linejoin:miter;stroke-miterlimit:4;stroke-opacity:1;stroke-dasharray:none;marker-end:url(#Arrow1Mend)"
       d="m 384.21826,547.2006 c 79.89333,290.13877 81.58739,294.49491 81.58739,294.49491 l 0.45166,1.72701"
       id="path8169"
       inkscape:connector-curvature="0"
       sodipodi:nodetypes="ccc" />
    <path
       transform="matrix(0.14097874,0,0,0.14493142,338.20289,509.59059)"
       d="m 358.67642,257.44101 a 31.412745,30.556034 0 0 1 -31.41275,30.55603 31.412745,30.556034 0 0 1 -31.41274,-30.55603 31.412745,30.556034 0 0 1 31.41274,-30.55603 31.412745,30.556034 0 0 1 31.41275,30.55603 z"
       sodipodi:ry="30.556034"
       sodipodi:rx="31.412745"
       sodipodi:cy="257.44101"
       sodipodi:cx="327.26367"
       id="path8171"
       style="fill:#000000;fill-opacity:1;stroke:#000000;stroke-opacity:1"
       sodipodi:type="arc" />
    <path
       inkscape:connector-curvature="0"
       id="path8175"
       d="m 318.38407,845.90033 c 74.61941,0 73.96485,0 73.96485,0"
       style="fill:none;stroke:#f70000;stroke-width:5;stroke-linecap:butt;stroke-linejoin:miter;stroke-miterlimit:4;stroke-opacity:1;stroke-dasharray:none" />
    <path
       style="fill:none;stroke:#f70000;stroke-width:5;stroke-linecap:butt;stroke-linejoin:miter;stroke-miterlimit:4;stroke-opacity:1;stroke-dasharray:10.00000008, 10.00000008;stroke-dashoffset:0"
       d="m 400.18377,846.02833 c 99.20001,0 98.32983,0 98.32983,0"
       id="path8177"
       inkscape:connector-curvature="0" />
    <text
       xml:space="preserve"
       style="font-size:18px;font-style:normal;font-weight:normal;line-height:125%;letter-spacing:0px;word-spacing:0px;fill:#000000;fill-opacity:1;stroke:none;font-family:Sans"
       x="629.59528"
       y="-256.80927"
       id="text8183"
       sodipodi:linespacing="125%"
       transform="matrix(0.22495105,0.97437007,-0.97437007,0.22495105,0,0)"><tspan
         sodipodi:role="line"
         id="tspan8185"
         x="629.59528"
         y="-256.80927">cancel</tspan></text>
    <path
       transform="matrix(0.14097874,0,0,0.14493142,295.36189,508.89994)"
       d="m 358.67642,257.44101 a 31.412745,30.556034 0 0 1 -31.41275,30.55603 31.412745,30.556034 0 0 1 -31.41274,-30.55603 31.412745,30.556034 0 0 1 31.41274,-30.55603 31.412745,30.556034 0 0 1 31.41275,30.55603 z"
       sodipodi:ry="30.556034"
       sodipodi:rx="31.412745"
       sodipodi:cy="257.44101"
       sodipodi:cx="327.26367"
       id="path8187"
       style="fill:#000000;fill-opacity:1;stroke:#000000;stroke-opacity:1"
       sodipodi:type="arc" />
    <text
       transform="matrix(0,-1,1,0,0,0)"
       sodipodi:linespacing="125%"
       id="text8189"
       y="418.81512"
       x="-531.60303"
       style="font-size:18px;font-style:normal;font-weight:normal;line-height:125%;letter-spacing:0px;word-spacing:0px;fill:#000000;fill-opacity:1;stroke:none;font-family:Sans"
       xml:space="preserve"><tspan
         y="418.81512"
         x="-531.60303"
         id="tspan8191"
         sodipodi:role="line">announceWin ok</tspan></text>
    <path
       sodipodi:type="arc"
       style="fill:#000000;fill-opacity:1;stroke:#000000;stroke-opacity:1"
       id="path8193"
       sodipodi:cx="327.26367"
       sodipodi:cy="257.44101"
       sodipodi:rx="31.412745"
       sodipodi:ry="30.556034"
       d="m 358.67642,257.44101 a 31.412745,30.556034 0 0 1 -31.41275,30.55603 31.412745,30.556034 0 0 1 -31.41274,-30.55603 31.412745,30.556034 0 0 1 31.41274,-30.55603 31.412745,30.556034 0 0 1 31.41275,30.55603 z"
       transform="matrix(0.14097874,0,0,0.14493142,367.17666,508.89994)" />
    <path
       style="fill:none;stroke:#000000;stroke-width:1.5;stroke-linecap:butt;stroke-linejoin:miter;stroke-miterlimit:4;stroke-opacity:1;stroke-dasharray:none;marker-end:url(#Arrow1Mend)"
       d="m 414.2155,548.98164 c 28.65377,159.11156 29.6218,156.44947 29.6218,156.44947 l 0.16199,0.94708"
       id="path8195"
       inkscape:connector-curvature="0"
       sodipodi:nodetypes="ccc" />
    <text
       transform="matrix(0,-1,1,0,0,0)"
       sodipodi:linespacing="125%"
       id="text8197"
       y="468.24609"
       x="-688.28979"
       style="font-size:18px;font-style:normal;font-weight:normal;line-height:125%;letter-spacing:0px;word-spacing:0px;fill:#000000;fill-opacity:1;stroke:none;font-family:Sans"
       xml:space="preserve"><tspan
         y="468.24609"
         x="-688.28979"
         id="tspan8199"
         sodipodi:role="line"
         style="fill:#ff0000">we won!</tspan></text>
    <path
       sodipodi:type="arc"
       style="fill:#000000;fill-opacity:1;stroke:#000000;stroke-opacity:1"
       id="path8201"
       sodipodi:cx="327.26367"
       sodipodi:cy="257.44101"
       sodipodi:rx="31.412745"
       sodipodi:ry="30.556034"
       d="m 358.67642,257.44101 a 31.412745,30.556034 0 0 1 -31.41275,30.55603 31.412745,30.556034 0 0 1 -31.41274,-30.55603 31.412745,30.556034 0 0 1 31.41274,-30.55603 31.412745,30.556034 0 0 1 31.41275,30.55603 z"
       transform="matrix(0.14097874,0,0,0.14493142,417.54027,668.3847)" />
    <text
       transform="matrix(0,-1,1,0,0,0)"
       sodipodi:linespacing="125%"
       id="text8203"
       y="158.60313"
       x="-528.80511"
       style="font-size:18px;font-style:normal;font-weight:normal;line-height:125%;letter-spacing:0px;word-spacing:0px;fill:#000000;fill-opacity:1;stroke:none;font-family:Sans"
       xml:space="preserve"><tspan
         y="158.60313"
         x="-528.80511"
         id="tspan8205"
         sodipodi:role="line">new Block</tspan></text>
    <path
       sodipodi:type="arc"
       style="fill:#000000;fill-opacity:1;stroke:#000000;stroke-opacity:1"
       id="path8207"
       sodipodi:cx="327.26367"
       sodipodi:cy="257.44101"
       sodipodi:rx="31.412745"
       sodipodi:ry="30.556034"
       d="m 358.67642,257.44101 a 31.412745,30.556034 0 0 1 -31.41275,30.55603 31.412745,30.556034 0 0 1 -31.41274,-30.55603 31.412745,30.556034 0 0 1 31.41274,-30.55603 31.412745,30.556034 0 0 1 31.41275,30.55603 z"
       transform="matrix(0.14097874,0,0,0.14493142,107.89735,508.89994)" />
    <path
       sodipodi:nodetypes="ccc"
       inkscape:connector-curvature="0"
       id="path8209"
       d="m 495.35688,706.54906 c 28.65377,-159.11156 29.6218,-156.44947 29.6218,-156.44947 l 0.16199,-0.94708"
       style="fill:none;stroke:#000000;stroke-width:1.5;stroke-linecap:butt;stroke-linejoin:miter;stroke-miterlimit:4;stroke-opacity:1;stroke-dasharray:none;marker-end:url(#Arrow1Mend)" />
    <path
       sodipodi:nodetypes="ccc"
       inkscape:connector-curvature="0"
       id="path8211"
       d="M 521.3192,845.43137 C 601.21253,555.2926 602.90659,550.93646 602.90659,550.93646 l 0.45166,-1.72701"
       style="fill:none;stroke:#000000;stroke-width:1.5;stroke-linecap:butt;stroke-linejoin:miter;stroke-miterlimit:4;stroke-opacity:1;stroke-dasharray:none;marker-end:url(#Arrow1Mend)" />
    <path
       style="fill:none;stroke:#0000ee;stroke-width:1.94340622000000000;stroke-linecap:butt;stroke-linejoin:miter;stroke-miterlimit:4;stroke-opacity:1;stroke-dasharray:3.88681241000000010, 1.94340621000000000;stroke-dashoffset:0"
       d="m 478.80148,669.73796 c 0,68.46418 0,67.86362 0,67.86362"
       id="path8213"
       inkscape:connector-curvature="0" />
    <path
       inkscape:connector-curvature="0"
       id="path8215"
       d="m 511.44456,791.91634 c 0,68.46418 0,67.86362 0,67.86362"
       style="fill:none;stroke:#0000ec;stroke-width:1.94340622000000000;stroke-linecap:butt;stroke-linejoin:miter;stroke-miterlimit:4;stroke-opacity:1;stroke-dasharray:3.88681241000000010, 1.94340621000000000;stroke-dashoffset:0" />
    <path
       style="fill:none;stroke:#000000;stroke-width:1.5;stroke-linecap:butt;stroke-linejoin:miter;stroke-miterlimit:4;stroke-opacity:1;stroke-dasharray:none;marker-end:url(#Arrow1Mend)"
       d="M 540.90505,845.43137 C 620.79838,555.2926 622.49244,550.93646 622.49244,550.93646 l 0.45166,-1.72701"
       id="path8217"
       inkscape:connector-curvature="0"
       sodipodi:nodetypes="ccc" />
    <text
       xml:space="preserve"
       style="font-size:18px;font-style:normal;font-weight:normal;line-height:125%;letter-spacing:0px;word-spacing:0px;fill:#000000;fill-opacity:1;stroke:none;font-family:Sans"
       x="-528.80505"
       y="638.92279"
       id="text8219"
       sodipodi:linespacing="125%"
       transform="matrix(0,-1,1,0,0,0)"><tspan
         sodipodi:role="line"
         id="tspan8221"
         x="-528.80505"
         y="638.92279">sign in 1</tspan></text>
    <text
       transform="matrix(0,-1,1,0,0,0)"
       sodipodi:linespacing="125%"
       id="text8223"
       y="665.12891"
       x="-528.29712"
       style="font-size:18px;font-style:normal;font-weight:normal;line-height:125%;letter-spacing:0px;word-spacing:0px;fill:#000000;fill-opacity:1;stroke:none;font-family:Sans"
       xml:space="preserve"><tspan
         y="665.12891"
         x="-528.29712"
         id="tspan8225"
         sodipodi:role="line">sign in 2</tspan></text>
    <path
       transform="matrix(0.14097874,0,0,0.14493142,588.21694,508.89994)"
       d="m 358.67642,257.44101 a 31.412745,30.556034 0 0 1 -31.41275,30.55603 31.412745,30.556034 0 0 1 -31.41274,-30.55603 31.412745,30.556034 0 0 1 31.41274,-30.55603 31.412745,30.556034 0 0 1 31.41275,30.55603 z"
       sodipodi:ry="30.556034"
       sodipodi:rx="31.412745"
       sodipodi:cy="257.44101"
       sodipodi:cx="327.26367"
       id="path8227"
       style="fill:#000000;fill-opacity:1;stroke:#000000;stroke-opacity:1"
       sodipodi:type="arc" />
    <path
       sodipodi:type="arc"
       style="fill:#000000;fill-opacity:1;stroke:#000000;stroke-opacity:1"
       id="path8229"
       sodipodi:cx="327.26367"
       sodipodi:cy="257.44101"
       sodipodi:rx="31.412745"
       sodipodi:ry="30.556034"
       d="m 358.67642,257.44101 a 31.412745,30.556034 0 0 1 -31.41275,30.55603 31.412745,30.556034 0 0 1 -31.41274,-30.55603 31.412745,30.556034 0 0 1 31.41274,-30.55603 31.412745,30.556034 0 0 1 31.41275,30.55603 z"
       transform="matrix(0.14097874,0,0,0.14493142,614.83781,508.89994)" />
    <text
       xml:space="preserve"
       style="font-size:18px;font-style:normal;font-weight:normal;line-height:125%;letter-spacing:0px;word-spacing:0px;fill:#000000;fill-opacity:1;stroke:none;font-family:Sans"
       x="-528.80511"
       y="607.21228"
       id="text8231"
       sodipodi:linespacing="125%"
       transform="matrix(0,-1,1,0,0,0)"><tspan
         sodipodi:role="line"
         id="tspan8233"
         x="-528.80511"
         y="607.21228">new Block</tspan></text>
    <path
       transform="matrix(0.14097874,0,0,0.14493142,556.50652,508.89994)"
       d="m 358.67642,257.44101 a 31.412745,30.556034 0 0 1 -31.41275,30.55603 31.412745,30.556034 0 0 1 -31.41274,-30.55603 31.412745,30.556034 0 0 1 31.41274,-30.55603 31.412745,30.556034 0 0 1 31.41275,30.55603 z"
       sodipodi:ry="30.556034"
       sodipodi:rx="31.412745"
       sodipodi:cy="257.44101"
       sodipodi:cx="327.26367"
       id="path8235"
       style="fill:#000000;fill-opacity:1;stroke:#000000;stroke-opacity:1"
       sodipodi:type="arc" />
    <text
       xml:space="preserve"
       style="font-size:18px;font-style:normal;font-weight:normal;line-height:125%;letter-spacing:0px;word-spacing:0px;fill:#000000;fill-opacity:1;stroke:none;font-family:Sans"
       x="-500.30466"
       y="629.07806"
       id="text8237"
       sodipodi:linespacing="125%"
       transform="matrix(0.22495105,-0.97437007,0.97437007,0.22495105,0,0)"><tspan
         sodipodi:role="line"
         id="tspan8239"
         x="-500.30466"
         y="629.07806">getwork</tspan></text>
    <text
       transform="matrix(0.25881904,-0.96592583,0.96592583,0.25881904,0,0)"
       sodipodi:linespacing="125%"
       id="text8241"
       y="760.25104"
       x="-454.12186"
       style="font-size:18px;font-style:normal;font-weight:normal;line-height:125%;letter-spacing:0px;word-spacing:0px;fill:#000000;fill-opacity:1;stroke:none;font-family:Sans"
       xml:space="preserve"><tspan
         y="760.25104"
         x="-454.12186"
         id="tspan8243"
         sodipodi:role="line">getwork</tspan></text>
    <text
       xml:space="preserve"
       style="font-size:18px;font-style:normal;font-weight:normal;line-height:125%;letter-spacing:0px;word-spacing:0px;fill:#000000;fill-opacity:1;stroke:none;font-family:Sans"
       x="-486.97626"
       y="716.91412"
       id="text8245"
       sodipodi:linespacing="125%"
       transform="matrix(0.25881904,-0.96592583,0.96592583,0.25881904,0,0)"><tspan
         sodipodi:role="line"
         id="tspan8247"
         x="-486.97626"
         y="716.91412">issueBlock</tspan></text>
    <path
       inkscape:connector-curvature="0"
       id="path8249"
       d="m 436.83181,508.38788 c 0,68.46418 0,67.86362 0,67.86362"
       style="fill:none;stroke:#0000ee;stroke-width:1.94340622000000000;stroke-linecap:butt;stroke-linejoin:miter;stroke-miterlimit:4;stroke-opacity:1;stroke-dasharray:3.88681241000000010, 1.94340621000000000;stroke-dashoffset:0" />
    <g
       id="g8449"
       transform="translate(-48.498289,21.451166)">
      <path
         sodipodi:nodetypes="ccc"
         inkscape:connector-curvature="0"
         id="path8251"
         d="m 154.9362,811.93957 c 28.65377,-23.83878 29.6218,-23.43993 29.6218,-23.43993 l 0.16199,-0.1419"
         style="fill:none;stroke:#000000;stroke-width:1;stroke-linecap:butt;stroke-linejoin:miter;stroke-miterlimit:4;stroke-opacity:1;stroke-dasharray:none;marker-end:none" />
      <path
         style="fill:none;stroke:#000000;stroke-width:1;stroke-linecap:butt;stroke-linejoin:miter;stroke-miterlimit:4;stroke-opacity:1;stroke-dasharray:none;marker-end:none"
         d="m 158.66684,814.73755 c 28.65377,-23.83878 29.6218,-23.43993 29.6218,-23.43993 l 0.16199,-0.1419"
         id="path8447"
         inkscape:connector-curvature="0"
         sodipodi:nodetypes="ccc" />
    </g>
    <text
       xml:space="preserve"
       style="font-size:18px;font-style:normal;font-weight:normal;line-height:125%;letter-spacing:0px;word-spacing:0px;fill:#000000;fill-opacity:1;stroke:none;font-family:Sans"
       x="-528.80505"
       y="367.51889"
       id="text8457"
       sodipodi:linespacing="125%"
       transform="matrix(0,-1,1,0,0,0)"><tspan
         sodipodi:role="line"
         id="tspan8459"
         x="-528.80505"
         y="367.51889">sign out 2</tspan></text>
    <text
       transform="matrix(0.22495105,-0.97437007,0.97437007,0.22495105,0,0)"
       sodipodi:linespacing="125%"
       id="text8461"
       y="434.47003"
       x="-602.66498"
       style="font-style:normal;font-weight:normal;font-size:18px;line-height:125%;font-family:Sans;letter-spacing:0px;word-spacing:0px;fill:#000000;fill-opacity:1;stroke:none"
       xml:space="preserve"><tspan
         y="434.47003"
         x="-602.66498"
         id="tspan8463"
         sodipodi:role="line">annuonceWin</tspan></text>
    <path
       style="fill:none;stroke:#000000;stroke-width:1.00000001;stroke-linecap:butt;stroke-linejoin:miter;stroke-miterlimit:4;stroke-opacity:1;stroke-dasharray:none;marker-end:url(#Arrow1Mend)"
       d="m 534.27689,411.16634 c -44.12734,15.1233 -80.58825,58.31917 -92.85227,83.31238"
       id="path8465"
       inkscape:connector-curvature="0"
       sodipodi:nodetypes="cc" />
    <text
       xml:space="preserve"
       style="font-size:18px;font-style:normal;font-weight:normal;line-height:125%;letter-spacing:0px;word-spacing:0px;fill:#f40000;fill-opacity:1;stroke:none;font-family:Sans;"
       x="541.28967"
       y="411.28107"
       id="text8467"
       sodipodi:linespacing="125%"><tspan
         sodipodi:role="line"
         id="tspan8469"
         x="541.28967"
         y="411.28107"
         style="font-style:oblique;-inkscape-font-specification:Sans Oblique;fill:#f40000;fill-opacity:1;">loop restart</tspan></text>
    <text
       transform="scale(1.0874235,0.91960492)"
       xml:space="preserve"
       style="font-style:normal;font-weight:normal;font-size:14.55451107px;line-height:125%;font-family:sans-serif;text-align:center;letter-spacing:0px;word-spacing:0px;text-anchor:middle;fill:#000000;fill-opacity:1;stroke:none"
       x="137.22614"
       y="872.42664"
       id="text5158"
       sodipodi:linespacing="125%"><tspan
         sodipodi:role="line"
         x="139.54292"
         y="872.42664"
         id="tspan5160">Conductor  </tspan></text>
  </g>
</svg>
